<svg xmlns="http://www.w3.org/2000/svg" viewBox="0 0 500 500"><g id="freepik--Card--inject-13"><path d="M137.24,398.94a4.75,4.75,0,0,1-2.07-3.75V275.8a4.86,4.86,0,0,1,2.21-3.82l153.15-88.43a4.15,4.15,0,0,1,6.36,3.67V306.61a4.9,4.9,0,0,1-2.21,3.83L141.53,398.86A4.74,4.74,0,0,1,137.24,398.94Z" style="fill:#455a64"></path><path d="M143.46,278l-7.64-4.41a4.5,4.5,0,0,0-.65,2.17V395.19a4.15,4.15,0,0,0,6.36,3.67l1.93-1.12Z" style="fill:#263238"></path><path d="M139.32,278.2V397.59c0,1.41,1,2,2.21,1.27l153.15-88.42a4.9,4.9,0,0,0,2.21-3.83V187.22c0-1.41-1-2-2.21-1.27L141.53,274.37A4.88,4.88,0,0,0,139.32,278.2Z" style="fill:#37474f"></path><path d="M151.76,309.32v18.84c0,1.41,1,2,2.21,1.27l24.6-14.2a4.87,4.87,0,0,0,2.21-3.83V292.56c0-1.41-1-2-2.21-1.27L154,305.49A4.9,4.9,0,0,0,151.76,309.32Z" style="fill:#37474F"></path><path d="M180.78,297.77v-1.15l-29,16.75v1.16l7.79-4.5v8.46l-7.79,4.5v1.15l29-16.75v-1.16l-7.79,4.5v-8.46ZM172,311.31l-11.44,6.6v-8.46l11.44-6.6Z" style="fill:#f5f5f5"></path><path d="M157.28,287.06v1.64a5,5,0,0,1-2.49,4.53c-1.64.95-2.5.31-2.5-1.65v-6.4a5,5,0,0,1,2.5-4.53c1.64-.94,2.49-.31,2.49,1.65v1.2l-1.58.91v-1.32c0-.87-.33-1-.87-.71a1.81,1.81,0,0,0-.86,1.72v6.63c0,.88.33,1,.86.7a1.77,1.77,0,0,0,.87-1.7V288Z" style="fill:#fff"></path><path d="M161.8,289a3.51,3.51,0,0,1-.15-1.42v-1.93c0-1.15-.34-1.38-1.1-.94l-.57.34v5l-1.68,1V278.77l2.53-1.46c1.73-1,2.48-.5,2.48,1.39v1a4.49,4.49,0,0,1-1.1,3.13c.84-.08,1.11.69,1.11,2v1.9a3.45,3.45,0,0,0,.18,1.39ZM160,279.55v3.78l.65-.38a1.94,1.94,0,0,0,1-1.88v-1.21c0-.88-.26-1.11-.85-.77Z" style="fill:#fff"></path><path d="M166.09,279.45l2.3-1.33v1.76l-2.3,1.33v3.6l2.89-1.67v1.75l-4.56,2.64V275.24L169,272.6v1.76L166.09,276Z" style="fill:#fff"></path><path d="M170,272l2.65-1.52c1.67-1,2.49-.37,2.49,1.59v6.22a4.87,4.87,0,0,1-2.49,4.48L170,284.3Zm1.68.79v8.79l.94-.55a1.75,1.75,0,0,0,.85-1.68V273c0-.88-.32-1-.85-.7Z" style="fill:#fff"></path><path d="M176.22,268.42l1.67-1v12.29l-1.67,1Z" style="fill:#fff"></path><path d="M178.62,267l5.17-3v1.75l-1.75,1v10.54l-1.67,1V267.78l-1.75,1Z" style="fill:#fff"></path><path d="M191.73,267.17v1.64a5,5,0,0,1-2.49,4.53c-1.64,1-2.49.31-2.49-1.65v-6.4a5,5,0,0,1,2.49-4.53c1.64-.95,2.49-.31,2.49,1.65v1.2l-1.58.91V263.2c0-.87-.33-1-.86-.71a1.8,1.8,0,0,0-.87,1.72v6.63c0,.88.33,1,.87.7a1.78,1.78,0,0,0,.86-1.7v-1.75Z" style="fill:#fff"></path><path d="M198.17,268l-1.69,1-.29-2.07-2.05,1.19-.29,2.4-1.54.88,1.7-13.27,2.45-1.42Zm-3.82-1.69,1.61-.93-.8-5.75Z" style="fill:#fff"></path><path d="M202.44,265.58a3.62,3.62,0,0,1-.15-1.43v-1.93c0-1.14-.33-1.37-1.1-.93l-.57.33v5l-1.68,1V255.3l2.53-1.46c1.73-1,2.48-.5,2.48,1.4v1a4.44,4.44,0,0,1-1.1,3.12c.84-.08,1.11.7,1.11,2v1.89a3.26,3.26,0,0,0,.19,1.39Zm-1.82-9.49v3.78l.65-.38a2,2,0,0,0,1-1.88V256.4c0-.88-.25-1.12-.85-.77Z" style="fill:#fff"></path><path d="M205.06,251.77l2.65-1.53c1.67-1,2.49-.37,2.49,1.6v6.22a4.87,4.87,0,0,1-2.49,4.48l-2.65,1.52Zm1.67.79v8.78l.94-.54a1.74,1.74,0,0,0,.86-1.69v-6.39c0-.88-.32-1-.86-.7Z" style="fill:#fff"></path><path d="M151.76,345.24v4.47c0,1.41,1,2,2.21,1.27l24.6-14.2a4.9,4.9,0,0,0,2.21-3.83v-4.47c0-1.41-1-2-2.21-1.28L154,341.41A4.88,4.88,0,0,0,151.76,345.24Z" style="fill:#e0e0e0"></path><path d="M186.31,325.28v4.47c0,1.41,1,2,2.21,1.28l24.61-14.21a4.86,4.86,0,0,0,2.21-3.82v-4.48c0-1.41-1-2-2.21-1.27l-24.61,14.2A4.9,4.9,0,0,0,186.31,325.28Z" style="fill:#e0e0e0"></path><path d="M220.87,305.33v4.47c0,1.41,1,2,2.21,1.28l24.6-14.21A4.87,4.87,0,0,0,249.9,293v-4.47c0-1.41-1-2-2.22-1.27l-24.6,14.2A4.9,4.9,0,0,0,220.87,305.33Z" style="fill:#e0e0e0"></path><path d="M255.42,285.38v4.47c0,1.41,1,2,2.21,1.28l24.61-14.21a4.9,4.9,0,0,0,2.21-3.83v-4.47c0-1.41-1-2-2.21-1.28l-24.61,14.21A4.88,4.88,0,0,0,255.42,285.38Z" style="fill:#e0e0e0"></path><path d="M270.68,290.78,265,294a2.94,2.94,0,0,0-1.32,2.3v1.73c0,.84.59,1.18,1.32.76l5.64-3.26a2.91,2.91,0,0,0,1.33-2.29v-1.73C272,290.7,271.42,290.35,270.68,290.78Z" style="fill:#37474F"></path><path d="M283.12,283.59l-5.64,3.26a2.93,2.93,0,0,0-1.32,2.3v1.72c0,.85.59,1.19,1.32.77l5.64-3.26a2.91,2.91,0,0,0,1.33-2.3v-1.72C284.45,283.51,283.86,283.17,283.12,283.59Z" style="fill:#37474F"></path><path d="M211.91,336.68l70.22-40.54c1.22-.71,2.21-.14,2.21,1.27v2.08a4.9,4.9,0,0,1-2.21,3.83l-70.22,40.54c-1.22.71-2.21.13-2.21-1.28v-2.07A4.88,4.88,0,0,1,211.91,336.68Z" style="fill:#37474F"></path></g><g id="freepik--Coins--inject-13"><path d="M374.28,315.15a18.13,18.13,0,0,0-6.67-6.17c-10.91-6.29-28.59-6.29-39.49,0a18,18,0,0,0-6.67,6.17h-1.51v5.71h0c.2,4,2.91,7.89,8.16,10.92,10.9,6.3,28.58,6.3,39.49,0,5.24-3,7.95-7,8.15-10.92h0v-5.71Z" style="fill:#37474F"></path><path d="M374.28,315.15a18.13,18.13,0,0,0-6.67-6.17c-10.91-6.29-28.59-6.29-39.49,0a18,18,0,0,0-6.67,6.17h-1.51v5.71h0c.2,4,2.91,7.89,8.16,10.92,10.9,6.3,28.58,6.3,39.49,0,5.24-3,7.95-7,8.15-10.92h0v-5.71Z" style="fill:#f5f5f5;opacity:0.5"></path><path d="M367.61,303.75c-10.91-6.29-28.59-6.29-39.49,0s-10.91,16.51,0,22.8,28.58,6.3,39.49,0S378.51,310.05,367.61,303.75Z" style="fill:#37474F"></path><path d="M367.61,303.75c-10.91-6.29-28.59-6.29-39.49,0s-10.91,16.51,0,22.8,28.58,6.3,39.49,0S378.51,310.05,367.61,303.75Z" style="fill:#f5f5f5;opacity:0.6000000000000001"></path><path d="M360.72,307.93a31.44,31.44,0,0,0-25.72,0c-3.65,1.87-5.66,4.44-5.66,7.23s2,5.35,5.66,7.22a31.44,31.44,0,0,0,25.72,0c3.65-1.87,5.66-4.44,5.66-7.22S364.37,309.8,360.72,307.93Z" style="fill:#37474F"></path><path d="M360.72,307.93a31.44,31.44,0,0,0-25.72,0c-3.65,1.87-5.66,4.44-5.66,7.23s2,5.35,5.66,7.22a31.44,31.44,0,0,0,25.72,0c3.65-1.87,5.66-4.44,5.66-7.22S364.37,309.8,360.72,307.93Z" style="fill:#f5f5f5;opacity:0.6000000000000001"></path><path d="M367,304.81c-5.09-2.94-11.89-4.56-19.14-4.56s-14,1.62-19.13,4.56c-4.89,2.82-7.57,6.49-7.57,10.35s2.68,7.52,7.57,10.34c5.09,2.94,11.88,4.56,19.13,4.56s14.05-1.62,19.14-4.56c4.88-2.82,7.57-6.49,7.57-10.34S371.88,307.63,367,304.81Zm-6.28,17.57a31.44,31.44,0,0,1-25.72,0c-3.65-1.87-5.66-4.44-5.66-7.22s2-5.36,5.66-7.23a31.44,31.44,0,0,1,25.72,0c3.65,1.87,5.66,4.44,5.66,7.23S364.37,320.51,360.72,322.38Z" style="fill:#37474F"></path><path d="M367,304.81c-5.09-2.94-11.89-4.56-19.14-4.56s-14,1.62-19.13,4.56c-4.89,2.82-7.57,6.49-7.57,10.35s2.68,7.52,7.57,10.34c5.09,2.94,11.88,4.56,19.13,4.56s14.05-1.62,19.14-4.56c4.88-2.82,7.57-6.49,7.57-10.34S371.88,307.63,367,304.81Zm-6.28,17.57a31.44,31.44,0,0,1-25.72,0c-3.65-1.87-5.66-4.44-5.66-7.22s2-5.36,5.66-7.23a31.44,31.44,0,0,1,25.72,0c3.65,1.87,5.66,4.44,5.66,7.23S364.37,320.51,360.72,322.38Z" style="fill:#f5f5f5;opacity:0.7000000000000001"></path><path d="M360.28,321.53c6.86-3.52,6.86-9.23,0-12.75s-18-3.52-24.84,0-6.86,9.23,0,12.75S353.42,325.05,360.28,321.53Z" style="fill:#37474F"></path><path d="M360.28,321.53c6.86-3.52,6.86-9.23,0-12.75s-18-3.52-24.84,0-6.86,9.23,0,12.75S353.42,325.05,360.28,321.53Z" style="fill:#f5f5f5;opacity:0.5"></path><path d="M360.28,311.17c-6.86-3.52-18-3.52-24.84,0-2.83,1.45-4.49,3.28-5,5.18.49,1.89,2.15,3.72,5,5.18,6.86,3.52,18,3.52,24.84,0,2.84-1.46,4.49-3.29,5-5.18C364.77,314.45,363.12,312.62,360.28,311.17Z" style="fill:#37474F"></path><path d="M360.28,311.17c-6.86-3.52-18-3.52-24.84,0-2.83,1.45-4.49,3.28-5,5.18.49,1.89,2.15,3.72,5,5.18,6.86,3.52,18,3.52,24.84,0,2.84-1.46,4.49-3.29,5-5.18C364.77,314.45,363.12,312.62,360.28,311.17Z" style="fill:#f5f5f5;opacity:0.6000000000000001"></path><polygon points="349.52 308.92 349.52 311.49 348.64 312.42 347.02 314.12 347.02 311.44 349.52 308.92" style="fill:#37474F"></polygon><path d="M347,311.44v2.68h-5.08V311S346.63,310.26,347,311.44Z" style="fill:#37474F"></path><path d="M358.68,318.75V321l-2.82,1.62-2.08-1.2a10.62,10.62,0,0,1-8.07.36v-2.22l1.28-1.27-1.28.35a8.21,8.21,0,0,1-6.28-.72c-1.27-.73-1.85-1.52-1.85-2.34v-2.17l.23-.94L337,312v-2.23l2.08,1.21a3.24,3.24,0,0,0-1.54,2.39v0c0,.8.62,1.58,1.85,2.29,2.74,1.58,5.45,1.06,7.94.26,2.31-.75,4-1.64,5.33-.87.82.48.57,1.06-.36,1.6a4.65,4.65,0,0,1-4,.23l-2.66,2.64a9.37,9.37,0,0,0,1.47.43,11.05,11.05,0,0,0,6.6-.79l2.08,1.2Z" style="fill:#37474F"></path><polygon points="353.77 319.18 353.77 321.4 355.86 322.6 355.86 320.38 353.77 319.18" style="fill:#37474F"></polygon><g style="opacity:0.5"><polygon points="349.52 308.92 349.52 311.49 348.64 312.42 347.02 314.12 347.02 311.44 349.52 308.92" style="fill:#f5f5f5"></polygon><path d="M347,311.44v2.68h-5.08V311S346.63,310.26,347,311.44Z" style="fill:#f5f5f5"></path><path d="M358.68,318.75V321l-2.82,1.62-2.08-1.2a10.62,10.62,0,0,1-8.07.36v-2.22l1.28-1.27-1.28.35a8.21,8.21,0,0,1-6.28-.72c-1.27-.73-1.85-1.52-1.85-2.34v-2.17l.23-.94L337,312v-2.23l2.08,1.21a3.24,3.24,0,0,0-1.54,2.39v0c0,.8.62,1.58,1.85,2.29,2.74,1.58,5.45,1.06,7.94.26,2.31-.75,4-1.64,5.33-.87.82.48.57,1.06-.36,1.6a4.65,4.65,0,0,1-4,.23l-2.66,2.64a9.37,9.37,0,0,0,1.47.43,11.05,11.05,0,0,0,6.6-.79l2.08,1.2Z" style="fill:#f5f5f5"></path><polygon points="353.77 319.18 353.77 321.4 355.86 322.6 355.86 320.38 353.77 319.18" style="fill:#f5f5f5"></polygon></g><path d="M358.2,318.48l-1.61-.93a2.74,2.74,0,0,0,1.61-2.47,1.55,1.55,0,0,0,0-.22,3,3,0,0,0-1.8-2.18h0a7.41,7.41,0,0,0-3.75-1h-.35l-.34,0-.29,0h-.12l-.22,0a16.72,16.72,0,0,0-1.82.38l-.86.25-1.17.38L347,313a13.47,13.47,0,0,1-2.5.71,2.52,2.52,0,0,1-1.07,0,2.28,2.28,0,0,1-.51-.21c-.62-.36-.72-.92.46-1.6a4.12,4.12,0,0,1,3.62-.38l2.5-2.52a10.71,10.71,0,0,0-7.55.42l-2.09-1.2L337,309.78l2.09,1.2a3.19,3.19,0,0,0-1.55,2.39v0c0,.8.61,1.58,1.85,2.29,2.74,1.58,5.45,1.06,7.94.26,2.31-.76,4-1.64,5.32-.87.83.48.58,1.06-.35,1.59a4.58,4.58,0,0,1-4,.23l-2.66,2.65a9.37,9.37,0,0,0,1.47.43,11,11,0,0,0,6.59-.79l2.09,1.2,2.81-1.62Z" style="fill:#37474F"></path><path d="M358.2,318.48l-1.61-.93a2.74,2.74,0,0,0,1.61-2.47,1.55,1.55,0,0,0,0-.22,3,3,0,0,0-1.8-2.18h0a7.41,7.41,0,0,0-3.75-1h-.35l-.34,0-.29,0h-.12l-.22,0a16.72,16.72,0,0,0-1.82.38l-.86.25-1.17.38L347,313a13.47,13.47,0,0,1-2.5.71,2.52,2.52,0,0,1-1.07,0,2.28,2.28,0,0,1-.51-.21c-.62-.36-.72-.92.46-1.6a4.12,4.12,0,0,1,3.62-.38l2.5-2.52a10.71,10.71,0,0,0-7.55.42l-2.09-1.2L337,309.78l2.09,1.2a3.19,3.19,0,0,0-1.55,2.39v0c0,.8.61,1.58,1.85,2.29,2.74,1.58,5.45,1.06,7.94.26,2.31-.76,4-1.64,5.32-.87.83.48.58,1.06-.35,1.59a4.58,4.58,0,0,1-4,.23l-2.66,2.65a9.37,9.37,0,0,0,1.47.43,11,11,0,0,0,6.59-.79l2.09,1.2,2.81-1.62Z" style="fill:#f5f5f5;opacity:0.7000000000000001"></path><path d="M375.94,307.31a18.13,18.13,0,0,0-6.67-6.17c-10.91-6.29-28.59-6.29-39.49,0a18.13,18.13,0,0,0-6.67,6.17H321.6V313h0c.2,4,2.92,7.89,8.16,10.92,10.9,6.3,28.58,6.3,39.49,0,5.24-3,8-7,8.16-10.92h0v-5.71Z" style="fill:#37474F"></path><path d="M375.94,307.31a18.13,18.13,0,0,0-6.67-6.17c-10.91-6.29-28.59-6.29-39.49,0a18.13,18.13,0,0,0-6.67,6.17H321.6V313h0c.2,4,2.92,7.89,8.16,10.92,10.9,6.3,28.58,6.3,39.49,0,5.24-3,8-7,8.16-10.92h0v-5.71Z" style="fill:#f5f5f5;opacity:0.5"></path><path d="M369.27,295.91c-10.91-6.29-28.59-6.29-39.49,0s-10.9,16.51,0,22.8,28.58,6.3,39.49,0S380.17,302.21,369.27,295.91Z" style="fill:#37474F"></path><path d="M369.27,295.91c-10.91-6.29-28.59-6.29-39.49,0s-10.9,16.51,0,22.8,28.58,6.3,39.49,0S380.17,302.21,369.27,295.91Z" style="fill:#f5f5f5;opacity:0.6000000000000001"></path><path d="M362.38,300.09a31.42,31.42,0,0,0-25.71,0C333,302,331,304.53,331,307.32s2,5.35,5.67,7.22a31.42,31.42,0,0,0,25.71,0c3.65-1.87,5.67-4.44,5.67-7.22S366,302,362.38,300.09Z" style="fill:#37474F"></path><path d="M362.38,300.09a31.42,31.42,0,0,0-25.71,0C333,302,331,304.53,331,307.32s2,5.35,5.67,7.22a31.42,31.42,0,0,0,25.71,0c3.65-1.87,5.67-4.44,5.67-7.22S366,302,362.38,300.09Z" style="fill:#f5f5f5;opacity:0.6000000000000001"></path><path d="M368.66,297c-5.09-2.94-11.89-4.56-19.14-4.56s-14,1.62-19.13,4.56c-4.89,2.82-7.57,6.49-7.57,10.35s2.68,7.52,7.57,10.34c5.09,2.94,11.88,4.56,19.13,4.56s14.05-1.62,19.14-4.56c4.88-2.82,7.57-6.49,7.57-10.34S373.54,299.79,368.66,297Zm-6.28,17.57a31.42,31.42,0,0,1-25.71,0c-3.66-1.87-5.67-4.44-5.67-7.22s2-5.36,5.67-7.23a31.42,31.42,0,0,1,25.71,0c3.65,1.87,5.67,4.44,5.67,7.23S366,312.67,362.38,314.54Z" style="fill:#37474F"></path><path d="M368.66,297c-5.09-2.94-11.89-4.56-19.14-4.56s-14,1.62-19.13,4.56c-4.89,2.82-7.57,6.49-7.57,10.35s2.68,7.52,7.57,10.34c5.09,2.94,11.88,4.56,19.13,4.56s14.05-1.62,19.14-4.56c4.88-2.82,7.57-6.49,7.57-10.34S373.54,299.79,368.66,297Zm-6.28,17.57a31.42,31.42,0,0,1-25.71,0c-3.66-1.87-5.67-4.44-5.67-7.22s2-5.36,5.67-7.23a31.42,31.42,0,0,1,25.71,0c3.65,1.87,5.67,4.44,5.67,7.23S366,312.67,362.38,314.54Z" style="fill:#f5f5f5;opacity:0.7000000000000001"></path><ellipse cx="349.52" cy="307.31" rx="17.56" ry="9.01" style="fill:#37474F"></ellipse><ellipse cx="349.52" cy="307.31" rx="17.56" ry="9.01" style="fill:#f5f5f5;opacity:0.5"></ellipse><path d="M361.94,303.33c-6.86-3.52-18-3.52-24.83,0-2.84,1.45-4.5,3.28-5,5.18.49,1.89,2.15,3.72,5,5.18,6.85,3.51,18,3.51,24.83,0,2.84-1.46,4.5-3.29,5-5.18C366.44,306.61,364.78,304.78,361.94,303.33Z" style="fill:#37474F"></path><path d="M361.94,303.33c-6.86-3.52-18-3.52-24.83,0-2.84,1.45-4.5,3.28-5,5.18.49,1.89,2.15,3.72,5,5.18,6.85,3.51,18,3.51,24.83,0,2.84-1.46,4.5-3.29,5-5.18C366.44,306.61,364.78,304.78,361.94,303.33Z" style="fill:#f5f5f5;opacity:0.6000000000000001"></path><polygon points="351.19 301.08 351.19 303.65 350.31 304.58 348.68 306.28 348.68 303.6 351.19 301.08" style="fill:#37474F"></polygon><path d="M348.68,303.6v2.68H343.6v-3.14S348.3,302.42,348.68,303.6Z" style="fill:#37474F"></path><path d="M360.34,310.91v2.23l-2.82,1.62-2.08-1.2a10.61,10.61,0,0,1-8.07.36V311.7l1.28-1.27-1.28.35a8.21,8.21,0,0,1-6.28-.72c-1.26-.73-1.85-1.52-1.85-2.34v-2.17l.23-.94-.77-.45v-2.23l2.09,1.21a3.23,3.23,0,0,0-1.55,2.39v0c0,.8.62,1.58,1.85,2.29,2.74,1.58,5.45,1.06,7.94.26,2.31-.75,4-1.64,5.33-.87.83.48.57,1.06-.35,1.6a4.65,4.65,0,0,1-4,.23l-2.67,2.64a9.69,9.69,0,0,0,1.47.43,11,11,0,0,0,6.6-.8l2.08,1.21Z" style="fill:#37474F"></path><polygon points="355.44 311.33 355.44 313.56 357.52 314.76 357.52 312.54 355.44 311.33" style="fill:#37474F"></polygon><g style="opacity:0.5"><polygon points="351.19 301.08 351.19 303.65 350.31 304.58 348.68 306.28 348.68 303.6 351.19 301.08" style="fill:#f5f5f5"></polygon><path d="M348.68,303.6v2.68H343.6v-3.14S348.3,302.42,348.68,303.6Z" style="fill:#f5f5f5"></path><path d="M360.34,310.91v2.23l-2.82,1.62-2.08-1.2a10.61,10.61,0,0,1-8.07.36V311.7l1.28-1.27-1.28.35a8.21,8.21,0,0,1-6.28-.72c-1.26-.73-1.85-1.52-1.85-2.34v-2.17l.23-.94-.77-.45v-2.23l2.09,1.21a3.23,3.23,0,0,0-1.55,2.39v0c0,.8.62,1.58,1.85,2.29,2.74,1.58,5.45,1.06,7.94.26,2.31-.75,4-1.64,5.33-.87.83.48.57,1.06-.35,1.6a4.65,4.65,0,0,1-4,.23l-2.67,2.64a9.69,9.69,0,0,0,1.47.43,11,11,0,0,0,6.6-.8l2.08,1.21Z" style="fill:#f5f5f5"></path><polygon points="355.44 311.33 355.44 313.56 357.52 314.76 357.52 312.54 355.44 311.33" style="fill:#f5f5f5"></polygon></g><path d="M359.87,310.64l-1.61-.93a2.74,2.74,0,0,0,1.61-2.47,1.5,1.5,0,0,0,0-.22c-.07-.77-.63-1.51-1.8-2.18h0a7.4,7.4,0,0,0-3.74-1H354l-.33,0-.3,0h-.12l-.22,0a17.23,17.23,0,0,0-1.82.38l-.85.25-1.18.38-.45.16a13.27,13.27,0,0,1-2.5.71,2.52,2.52,0,0,1-1.07,0,2.21,2.21,0,0,1-.5-.21c-.63-.36-.73-.92.45-1.6a4.12,4.12,0,0,1,3.62-.38l2.51-2.52a10.73,10.73,0,0,0-7.56.42l-2.09-1.2-2.84,1.64,2.09,1.2a3.21,3.21,0,0,0-1.55,2.39v0c0,.8.61,1.58,1.85,2.29,2.74,1.58,5.46,1.06,7.94.26,2.31-.76,4-1.64,5.33-.88.83.49.57,1.07-.35,1.6a4.58,4.58,0,0,1-4,.23l-2.67,2.65a9.69,9.69,0,0,0,1.47.43,11,11,0,0,0,6.6-.8l2.08,1.21,2.82-1.62Z" style="fill:#37474F"></path><path d="M359.87,310.64l-1.61-.93a2.74,2.74,0,0,0,1.61-2.47,1.5,1.5,0,0,0,0-.22c-.07-.77-.63-1.51-1.8-2.18h0a7.4,7.4,0,0,0-3.74-1H354l-.33,0-.3,0h-.12l-.22,0a17.23,17.23,0,0,0-1.82.38l-.85.25-1.18.38-.45.16a13.27,13.27,0,0,1-2.5.71,2.52,2.52,0,0,1-1.07,0,2.21,2.21,0,0,1-.5-.21c-.63-.36-.73-.92.45-1.6a4.12,4.12,0,0,1,3.62-.38l2.51-2.52a10.73,10.73,0,0,0-7.56.42l-2.09-1.2-2.84,1.64,2.09,1.2a3.21,3.21,0,0,0-1.55,2.39v0c0,.8.61,1.58,1.85,2.29,2.74,1.58,5.46,1.06,7.94.26,2.31-.76,4-1.64,5.33-.88.83.49.57,1.07-.35,1.6a4.58,4.58,0,0,1-4,.23l-2.67,2.65a9.69,9.69,0,0,0,1.47.43,11,11,0,0,0,6.6-.8l2.08,1.21,2.82-1.62Z" style="fill:#f5f5f5;opacity:0.7000000000000001"></path><path d="M374.28,315.15a18.13,18.13,0,0,0-6.67-6.17c-10.91-6.29-28.59-6.29-39.49,0a18,18,0,0,0-6.67,6.17h-1.51v5.71h0c.2,4,2.91,7.89,8.16,10.92,10.9,6.3,28.58,6.3,39.49,0,5.24-3,7.95-7,8.15-10.92h0v-5.71Z" style="fill:#37474F"></path><path d="M374.28,315.15a18.13,18.13,0,0,0-6.67-6.17c-10.91-6.29-28.59-6.29-39.49,0a18,18,0,0,0-6.67,6.17h-1.51v5.71h0c.2,4,2.91,7.89,8.16,10.92,10.9,6.3,28.58,6.3,39.49,0,5.24-3,7.95-7,8.15-10.92h0v-5.71Z" style="fill:#f5f5f5;opacity:0.5"></path><path d="M367.61,303.75c-10.91-6.29-28.59-6.29-39.49,0s-10.91,16.51,0,22.8,28.58,6.3,39.49,0S378.51,310.05,367.61,303.75Z" style="fill:#37474F"></path><path d="M367.61,303.75c-10.91-6.29-28.59-6.29-39.49,0s-10.91,16.51,0,22.8,28.58,6.3,39.49,0S378.51,310.05,367.61,303.75Z" style="fill:#f5f5f5;opacity:0.6000000000000001"></path><path d="M360.72,307.93a31.44,31.44,0,0,0-25.72,0c-3.65,1.87-5.66,4.44-5.66,7.23s2,5.35,5.66,7.22a31.44,31.44,0,0,0,25.72,0c3.65-1.87,5.66-4.44,5.66-7.22S364.37,309.8,360.72,307.93Z" style="fill:#37474F"></path><path d="M360.72,307.93a31.44,31.44,0,0,0-25.72,0c-3.65,1.87-5.66,4.44-5.66,7.23s2,5.35,5.66,7.22a31.44,31.44,0,0,0,25.72,0c3.65-1.87,5.66-4.44,5.66-7.22S364.37,309.8,360.72,307.93Z" style="fill:#f5f5f5;opacity:0.6000000000000001"></path><path d="M367,304.81c-5.09-2.94-11.89-4.56-19.14-4.56s-14,1.62-19.13,4.56c-4.89,2.82-7.57,6.49-7.57,10.35s2.68,7.52,7.57,10.34c5.09,2.94,11.88,4.56,19.13,4.56s14.05-1.62,19.14-4.56c4.88-2.82,7.57-6.49,7.57-10.34S371.88,307.63,367,304.81Zm-6.28,17.57a31.44,31.44,0,0,1-25.72,0c-3.65-1.87-5.66-4.44-5.66-7.22s2-5.36,5.66-7.23a31.44,31.44,0,0,1,25.72,0c3.65,1.87,5.66,4.44,5.66,7.23S364.37,320.51,360.72,322.38Z" style="fill:#37474F"></path><path d="M367,304.81c-5.09-2.94-11.89-4.56-19.14-4.56s-14,1.62-19.13,4.56c-4.89,2.82-7.57,6.49-7.57,10.35s2.68,7.52,7.57,10.34c5.09,2.94,11.88,4.56,19.13,4.56s14.05-1.62,19.14-4.56c4.88-2.82,7.57-6.49,7.57-10.34S371.88,307.63,367,304.81Zm-6.28,17.57a31.44,31.44,0,0,1-25.72,0c-3.65-1.87-5.66-4.44-5.66-7.22s2-5.36,5.66-7.23a31.44,31.44,0,0,1,25.72,0c3.65,1.87,5.66,4.44,5.66,7.23S364.37,320.51,360.72,322.38Z" style="fill:#f5f5f5;opacity:0.7000000000000001"></path><path d="M360.28,321.53c6.86-3.52,6.86-9.23,0-12.75s-18-3.52-24.84,0-6.86,9.23,0,12.75S353.42,325.05,360.28,321.53Z" style="fill:#37474F"></path><path d="M360.28,321.53c6.86-3.52,6.86-9.23,0-12.75s-18-3.52-24.84,0-6.86,9.23,0,12.75S353.42,325.05,360.28,321.53Z" style="fill:#f5f5f5;opacity:0.5"></path><path d="M360.28,311.17c-6.86-3.52-18-3.52-24.84,0-2.83,1.45-4.49,3.28-5,5.18.49,1.89,2.15,3.72,5,5.18,6.86,3.52,18,3.52,24.84,0,2.84-1.46,4.49-3.29,5-5.18C364.77,314.45,363.12,312.62,360.28,311.17Z" style="fill:#37474F"></path><path d="M360.28,311.17c-6.86-3.52-18-3.52-24.84,0-2.83,1.45-4.49,3.28-5,5.18.49,1.89,2.15,3.72,5,5.18,6.86,3.52,18,3.52,24.84,0,2.84-1.46,4.49-3.29,5-5.18C364.77,314.45,363.12,312.62,360.28,311.17Z" style="fill:#f5f5f5;opacity:0.6000000000000001"></path><polygon points="349.52 308.92 349.52 311.49 348.64 312.42 347.02 314.12 347.02 311.44 349.52 308.92" style="fill:#37474F"></polygon><path d="M347,311.44v2.68h-5.08V311S346.63,310.26,347,311.44Z" style="fill:#37474F"></path><path d="M358.68,318.75V321l-2.82,1.62-2.08-1.2a10.62,10.62,0,0,1-8.07.36v-2.22l1.28-1.27-1.28.35a8.21,8.21,0,0,1-6.28-.72c-1.27-.73-1.85-1.52-1.85-2.34v-2.17l.23-.94L337,312v-2.23l2.08,1.21a3.24,3.24,0,0,0-1.54,2.39v0c0,.8.62,1.58,1.85,2.29,2.74,1.58,5.45,1.06,7.94.26,2.31-.75,4-1.64,5.33-.87.82.48.57,1.06-.36,1.6a4.65,4.65,0,0,1-4,.23l-2.66,2.64a9.37,9.37,0,0,0,1.47.43,11.05,11.05,0,0,0,6.6-.79l2.08,1.2Z" style="fill:#37474F"></path><polygon points="353.77 319.18 353.77 321.4 355.86 322.6 355.86 320.38 353.77 319.18" style="fill:#37474F"></polygon><g style="opacity:0.5"><polygon points="349.52 308.92 349.52 311.49 348.64 312.42 347.02 314.12 347.02 311.44 349.52 308.92" style="fill:#f5f5f5"></polygon><path d="M347,311.44v2.68h-5.08V311S346.63,310.26,347,311.44Z" style="fill:#f5f5f5"></path><path d="M358.68,318.75V321l-2.82,1.62-2.08-1.2a10.62,10.62,0,0,1-8.07.36v-2.22l1.28-1.27-1.28.35a8.21,8.21,0,0,1-6.28-.72c-1.27-.73-1.85-1.52-1.85-2.34v-2.17l.23-.94L337,312v-2.23l2.08,1.21a3.24,3.24,0,0,0-1.54,2.39v0c0,.8.62,1.58,1.85,2.29,2.74,1.58,5.45,1.06,7.94.26,2.31-.75,4-1.64,5.33-.87.82.48.57,1.06-.36,1.6a4.65,4.65,0,0,1-4,.23l-2.66,2.64a9.37,9.37,0,0,0,1.47.43,11.05,11.05,0,0,0,6.6-.79l2.08,1.2Z" style="fill:#f5f5f5"></path><polygon points="353.77 319.18 353.77 321.4 355.86 322.6 355.86 320.38 353.77 319.18" style="fill:#f5f5f5"></polygon></g><path d="M358.2,318.48l-1.61-.93a2.74,2.74,0,0,0,1.61-2.47,1.55,1.55,0,0,0,0-.22,3,3,0,0,0-1.8-2.18h0a7.41,7.41,0,0,0-3.75-1h-.35l-.34,0-.29,0h-.12l-.22,0a16.72,16.72,0,0,0-1.82.38l-.86.25-1.17.38L347,313a13.47,13.47,0,0,1-2.5.71,2.52,2.52,0,0,1-1.07,0,2.28,2.28,0,0,1-.51-.21c-.62-.36-.72-.92.46-1.6a4.12,4.12,0,0,1,3.62-.38l2.5-2.52a10.71,10.71,0,0,0-7.55.42l-2.09-1.2L337,309.78l2.09,1.2a3.19,3.19,0,0,0-1.55,2.39v0c0,.8.61,1.58,1.85,2.29,2.74,1.58,5.45,1.06,7.94.26,2.31-.76,4-1.64,5.32-.87.83.48.58,1.06-.35,1.59a4.58,4.58,0,0,1-4,.23l-2.66,2.65a9.37,9.37,0,0,0,1.47.43,11,11,0,0,0,6.59-.79l2.09,1.2,2.81-1.62Z" style="fill:#37474F"></path><path d="M358.2,318.48l-1.61-.93a2.74,2.74,0,0,0,1.61-2.47,1.55,1.55,0,0,0,0-.22,3,3,0,0,0-1.8-2.18h0a7.41,7.41,0,0,0-3.75-1h-.35l-.34,0-.29,0h-.12l-.22,0a16.72,16.72,0,0,0-1.82.38l-.86.25-1.17.38L347,313a13.47,13.47,0,0,1-2.5.71,2.52,2.52,0,0,1-1.07,0,2.28,2.28,0,0,1-.51-.21c-.62-.36-.72-.92.46-1.6a4.12,4.12,0,0,1,3.62-.38l2.5-2.52a10.71,10.71,0,0,0-7.55.42l-2.09-1.2L337,309.78l2.09,1.2a3.19,3.19,0,0,0-1.55,2.39v0c0,.8.61,1.58,1.85,2.29,2.74,1.58,5.45,1.06,7.94.26,2.31-.76,4-1.64,5.32-.87.83.48.58,1.06-.35,1.59a4.58,4.58,0,0,1-4,.23l-2.66,2.65a9.37,9.37,0,0,0,1.47.43,11,11,0,0,0,6.59-.79l2.09,1.2,2.81-1.62Z" style="fill:#f5f5f5;opacity:0.7000000000000001"></path><path d="M375.94,307.31a18.13,18.13,0,0,0-6.67-6.17c-10.91-6.29-28.59-6.29-39.49,0a18.13,18.13,0,0,0-6.67,6.17H321.6V313h0c.2,4,2.92,7.89,8.16,10.92,10.9,6.3,28.58,6.3,39.49,0,5.24-3,8-7,8.16-10.92h0v-5.71Z" style="fill:#37474F"></path><path d="M375.94,307.31a18.13,18.13,0,0,0-6.67-6.17c-10.91-6.29-28.59-6.29-39.49,0a18.13,18.13,0,0,0-6.67,6.17H321.6V313h0c.2,4,2.92,7.89,8.16,10.92,10.9,6.3,28.58,6.3,39.49,0,5.24-3,8-7,8.16-10.92h0v-5.71Z" style="fill:#f5f5f5;opacity:0.5"></path><path d="M369.27,295.91c-10.91-6.29-28.59-6.29-39.49,0s-10.9,16.51,0,22.8,28.58,6.3,39.49,0S380.17,302.21,369.27,295.91Z" style="fill:#37474F"></path><path d="M369.27,295.91c-10.91-6.29-28.59-6.29-39.49,0s-10.9,16.51,0,22.8,28.58,6.3,39.49,0S380.17,302.21,369.27,295.91Z" style="fill:#f5f5f5;opacity:0.6000000000000001"></path><path d="M362.38,300.09a31.42,31.42,0,0,0-25.71,0C333,302,331,304.53,331,307.32s2,5.35,5.67,7.22a31.42,31.42,0,0,0,25.71,0c3.65-1.87,5.67-4.44,5.67-7.22S366,302,362.38,300.09Z" style="fill:#37474F"></path><path d="M362.38,300.09a31.42,31.42,0,0,0-25.71,0C333,302,331,304.53,331,307.32s2,5.35,5.67,7.22a31.42,31.42,0,0,0,25.71,0c3.65-1.87,5.67-4.44,5.67-7.22S366,302,362.38,300.09Z" style="fill:#f5f5f5;opacity:0.6000000000000001"></path><path d="M368.66,297c-5.09-2.94-11.89-4.56-19.14-4.56s-14,1.62-19.13,4.56c-4.89,2.82-7.57,6.49-7.57,10.35s2.68,7.52,7.57,10.34c5.09,2.94,11.88,4.56,19.13,4.56s14.05-1.62,19.14-4.56c4.88-2.82,7.57-6.49,7.57-10.34S373.54,299.79,368.66,297Zm-6.28,17.57a31.42,31.42,0,0,1-25.71,0c-3.66-1.87-5.67-4.44-5.67-7.22s2-5.36,5.67-7.23a31.42,31.42,0,0,1,25.71,0c3.65,1.87,5.67,4.44,5.67,7.23S366,312.67,362.38,314.54Z" style="fill:#37474F"></path><path d="M368.66,297c-5.09-2.94-11.89-4.56-19.14-4.56s-14,1.62-19.13,4.56c-4.89,2.82-7.57,6.49-7.57,10.35s2.68,7.52,7.57,10.34c5.09,2.94,11.88,4.56,19.13,4.56s14.05-1.62,19.14-4.56c4.88-2.82,7.57-6.49,7.57-10.34S373.54,299.79,368.66,297Zm-6.28,17.57a31.42,31.42,0,0,1-25.71,0c-3.66-1.87-5.67-4.44-5.67-7.22s2-5.36,5.67-7.23a31.42,31.42,0,0,1,25.71,0c3.65,1.87,5.67,4.44,5.67,7.23S366,312.67,362.38,314.54Z" style="fill:#f5f5f5;opacity:0.7000000000000001"></path><ellipse cx="349.52" cy="307.31" rx="17.56" ry="9.01" style="fill:#37474F"></ellipse><ellipse cx="349.52" cy="307.31" rx="17.56" ry="9.01" style="fill:#f5f5f5;opacity:0.5"></ellipse><path d="M361.94,303.33c-6.86-3.52-18-3.52-24.83,0-2.84,1.45-4.5,3.28-5,5.18.49,1.89,2.15,3.72,5,5.18,6.85,3.51,18,3.51,24.83,0,2.84-1.46,4.5-3.29,5-5.18C366.44,306.61,364.78,304.78,361.94,303.33Z" style="fill:#37474F"></path><path d="M361.94,303.33c-6.86-3.52-18-3.52-24.83,0-2.84,1.45-4.5,3.28-5,5.18.49,1.89,2.15,3.72,5,5.18,6.85,3.51,18,3.51,24.83,0,2.84-1.46,4.5-3.29,5-5.18C366.44,306.61,364.78,304.78,361.94,303.33Z" style="fill:#f5f5f5;opacity:0.6000000000000001"></path><polygon points="351.19 301.08 351.19 303.65 350.31 304.58 348.68 306.28 348.68 303.6 351.19 301.08" style="fill:#37474F"></polygon><path d="M348.68,303.6v2.68H343.6v-3.14S348.3,302.42,348.68,303.6Z" style="fill:#37474F"></path><path d="M360.34,310.91v2.23l-2.82,1.62-2.08-1.2a10.61,10.61,0,0,1-8.07.36V311.7l1.28-1.27-1.28.35a8.21,8.21,0,0,1-6.28-.72c-1.26-.73-1.85-1.52-1.85-2.34v-2.17l.23-.94-.77-.45v-2.23l2.09,1.21a3.23,3.23,0,0,0-1.55,2.39v0c0,.8.62,1.58,1.85,2.29,2.74,1.58,5.45,1.06,7.94.26,2.31-.75,4-1.64,5.33-.87.83.48.57,1.06-.35,1.6a4.65,4.65,0,0,1-4,.23l-2.67,2.64a9.69,9.69,0,0,0,1.47.43,11,11,0,0,0,6.6-.8l2.08,1.21Z" style="fill:#37474F"></path><polygon points="355.44 311.33 355.44 313.56 357.52 314.76 357.52 312.54 355.44 311.33" style="fill:#37474F"></polygon><g style="opacity:0.5"><polygon points="351.19 301.08 351.19 303.65 350.31 304.58 348.68 306.28 348.68 303.6 351.19 301.08" style="fill:#f5f5f5"></polygon><path d="M348.68,303.6v2.68H343.6v-3.14S348.3,302.42,348.68,303.6Z" style="fill:#f5f5f5"></path><path d="M360.34,310.91v2.23l-2.82,1.62-2.08-1.2a10.61,10.61,0,0,1-8.07.36V311.7l1.28-1.27-1.28.35a8.21,8.21,0,0,1-6.28-.72c-1.26-.73-1.85-1.52-1.85-2.34v-2.17l.23-.94-.77-.45v-2.23l2.09,1.21a3.23,3.23,0,0,0-1.55,2.39v0c0,.8.62,1.58,1.85,2.29,2.74,1.58,5.45,1.06,7.94.26,2.31-.75,4-1.64,5.33-.87.83.48.57,1.06-.35,1.6a4.65,4.65,0,0,1-4,.23l-2.67,2.64a9.69,9.69,0,0,0,1.47.43,11,11,0,0,0,6.6-.8l2.08,1.21Z" style="fill:#f5f5f5"></path><polygon points="355.44 311.33 355.44 313.56 357.52 314.76 357.52 312.54 355.44 311.33" style="fill:#f5f5f5"></polygon></g><path d="M359.87,310.64l-1.61-.93a2.74,2.74,0,0,0,1.61-2.47,1.5,1.5,0,0,0,0-.22c-.07-.77-.63-1.51-1.8-2.18h0a7.4,7.4,0,0,0-3.74-1H354l-.33,0-.3,0h-.12l-.22,0a17.23,17.23,0,0,0-1.82.38l-.85.25-1.18.38-.45.16a13.27,13.27,0,0,1-2.5.71,2.52,2.52,0,0,1-1.07,0,2.21,2.21,0,0,1-.5-.21c-.63-.36-.73-.92.45-1.6a4.12,4.12,0,0,1,3.62-.38l2.51-2.52a10.73,10.73,0,0,0-7.56.42l-2.09-1.2-2.84,1.64,2.09,1.2a3.21,3.21,0,0,0-1.55,2.39v0c0,.8.61,1.58,1.85,2.29,2.74,1.58,5.46,1.06,7.94.26,2.31-.76,4-1.64,5.33-.88.83.49.57,1.07-.35,1.6a4.58,4.58,0,0,1-4,.23l-2.67,2.65a9.69,9.69,0,0,0,1.47.43,11,11,0,0,0,6.6-.8l2.08,1.21,2.82-1.62Z" style="fill:#37474F"></path><path d="M359.87,310.64l-1.61-.93a2.74,2.74,0,0,0,1.61-2.47,1.5,1.5,0,0,0,0-.22c-.07-.77-.63-1.51-1.8-2.18h0a7.4,7.4,0,0,0-3.74-1H354l-.33,0-.3,0h-.12l-.22,0a17.23,17.23,0,0,0-1.82.38l-.85.25-1.18.38-.45.16a13.27,13.27,0,0,1-2.5.71,2.52,2.52,0,0,1-1.07,0,2.21,2.21,0,0,1-.5-.21c-.63-.36-.73-.92.45-1.6a4.12,4.12,0,0,1,3.62-.38l2.51-2.52a10.73,10.73,0,0,0-7.56.42l-2.09-1.2-2.84,1.64,2.09,1.2a3.21,3.21,0,0,0-1.55,2.39v0c0,.8.61,1.58,1.85,2.29,2.74,1.58,5.46,1.06,7.94.26,2.31-.76,4-1.64,5.33-.88.83.49.57,1.07-.35,1.6a4.58,4.58,0,0,1-4,.23l-2.67,2.65a9.69,9.69,0,0,0,1.47.43,11,11,0,0,0,6.6-.8l2.08,1.21,2.82-1.62Z" style="fill:#f5f5f5;opacity:0.7000000000000001"></path><path d="M137.94,230.31a18.13,18.13,0,0,0-6.67-6.17c-10.91-6.29-28.59-6.29-39.49,0a18.13,18.13,0,0,0-6.67,6.17H83.6V236h0c.2,4,2.92,7.89,8.16,10.92,10.9,6.3,28.58,6.3,39.49,0,5.24-3,8-7,8.16-10.92h0v-5.71Z" style="fill:#37474F"></path><path d="M137.94,230.31a18.13,18.13,0,0,0-6.67-6.17c-10.91-6.29-28.59-6.29-39.49,0a18.13,18.13,0,0,0-6.67,6.17H83.6V236h0c.2,4,2.92,7.89,8.16,10.92,10.9,6.3,28.58,6.3,39.49,0,5.24-3,8-7,8.16-10.92h0v-5.71Z" style="fill:#f5f5f5;opacity:0.5"></path><path d="M131.27,218.91c-10.91-6.29-28.59-6.29-39.49,0s-10.9,16.51,0,22.8,28.58,6.3,39.49,0S142.17,225.21,131.27,218.91Z" style="fill:#37474F"></path><path d="M131.27,218.91c-10.91-6.29-28.59-6.29-39.49,0s-10.9,16.51,0,22.8,28.58,6.3,39.49,0S142.17,225.21,131.27,218.91Z" style="fill:#f5f5f5;opacity:0.6000000000000001"></path><path d="M124.38,223.09a28.81,28.81,0,0,0-12.86-2.75,28.79,28.79,0,0,0-12.85,2.75C95,225,93,227.53,93,230.32s2,5.35,5.67,7.22a28.79,28.79,0,0,0,12.85,2.75,28.81,28.81,0,0,0,12.86-2.75c3.65-1.87,5.67-4.44,5.67-7.22S128,225,124.38,223.09Z" style="fill:#37474F"></path><path d="M124.38,223.09a28.81,28.81,0,0,0-12.86-2.75,28.79,28.79,0,0,0-12.85,2.75C95,225,93,227.53,93,230.32s2,5.35,5.67,7.22a28.79,28.79,0,0,0,12.85,2.75,28.81,28.81,0,0,0,12.86-2.75c3.65-1.87,5.67-4.44,5.67-7.22S128,225,124.38,223.09Z" style="fill:#f5f5f5;opacity:0.6000000000000001"></path><path d="M130.66,220c-5.09-2.94-11.89-4.56-19.14-4.56S97.48,217,92.39,220c-4.89,2.82-7.57,6.49-7.57,10.35s2.68,7.52,7.57,10.34c5.09,2.94,11.88,4.56,19.13,4.56s14-1.62,19.14-4.56c4.88-2.82,7.57-6.49,7.57-10.34S135.54,222.79,130.66,220Zm-6.28,17.57a28.81,28.81,0,0,1-12.86,2.75,28.79,28.79,0,0,1-12.85-2.75C95,235.67,93,233.1,93,230.32s2-5.36,5.67-7.23a28.79,28.79,0,0,1,12.85-2.75,28.81,28.81,0,0,1,12.86,2.75c3.65,1.87,5.67,4.44,5.67,7.23S128,235.67,124.38,237.54Z" style="fill:#37474F"></path><path d="M130.66,220c-5.09-2.94-11.89-4.56-19.14-4.56S97.48,217,92.39,220c-4.89,2.82-7.57,6.49-7.57,10.35s2.68,7.52,7.57,10.34c5.09,2.94,11.88,4.56,19.13,4.56s14-1.62,19.14-4.56c4.88-2.82,7.57-6.49,7.57-10.34S135.54,222.79,130.66,220Zm-6.28,17.57a28.81,28.81,0,0,1-12.86,2.75,28.79,28.79,0,0,1-12.85-2.75C95,235.67,93,233.1,93,230.32s2-5.36,5.67-7.23a28.79,28.79,0,0,1,12.85-2.75,28.81,28.81,0,0,1,12.86,2.75c3.65,1.87,5.67,4.44,5.67,7.23S128,235.67,124.38,237.54Z" style="fill:#f5f5f5;opacity:0.7000000000000001"></path><ellipse cx="111.52" cy="230.31" rx="17.56" ry="9.01" style="fill:#37474F"></ellipse><ellipse cx="111.52" cy="230.31" rx="17.56" ry="9.01" style="fill:#f5f5f5;opacity:0.5"></ellipse><path d="M123.94,226.33c-6.86-3.52-18-3.52-24.83,0-2.84,1.45-4.5,3.28-5,5.18.49,1.89,2.15,3.72,5,5.18,6.85,3.51,18,3.51,24.83,0,2.84-1.46,4.5-3.29,5-5.18C128.44,229.61,126.78,227.78,123.94,226.33Z" style="fill:#37474F"></path><path d="M123.94,226.33c-6.86-3.52-18-3.52-24.83,0-2.84,1.45-4.5,3.28-5,5.18.49,1.89,2.15,3.72,5,5.18,6.85,3.51,18,3.51,24.83,0,2.84-1.46,4.5-3.29,5-5.18C128.44,229.61,126.78,227.78,123.94,226.33Z" style="fill:#f5f5f5;opacity:0.6000000000000001"></path><polygon points="113.19 224.08 113.19 226.65 112.31 227.58 110.68 229.28 110.68 226.6 113.19 224.08" style="fill:#37474F"></polygon><path d="M110.68,226.6v2.68H105.6v-3.14S110.3,225.42,110.68,226.6Z" style="fill:#37474F"></path><path d="M122.34,233.91v2.23l-2.82,1.62-2.08-1.2a10.61,10.61,0,0,1-8.07.36V234.7l1.28-1.27-1.28.35a8.21,8.21,0,0,1-6.28-.72c-1.26-.73-1.85-1.52-1.85-2.34v-2.17l.23-.94-.77-.45v-2.23l2.09,1.21a3.23,3.23,0,0,0-1.55,2.39v0c0,.8.62,1.58,1.85,2.29,2.74,1.58,5.45,1.06,7.94.26,2.31-.75,4-1.64,5.33-.87.83.48.58,1.06-.35,1.6a4.65,4.65,0,0,1-4,.23l-2.67,2.64a9.69,9.69,0,0,0,1.47.43,11,11,0,0,0,6.6-.8l2.08,1.21Z" style="fill:#37474F"></path><polygon points="117.44 234.34 117.44 236.56 119.52 237.76 119.52 235.54 117.44 234.34" style="fill:#37474F"></polygon><g style="opacity:0.5"><polygon points="113.19 224.08 113.19 226.65 112.31 227.58 110.68 229.28 110.68 226.6 113.19 224.08" style="fill:#f5f5f5"></polygon><path d="M110.68,226.6v2.68H105.6v-3.14S110.3,225.42,110.68,226.6Z" style="fill:#f5f5f5"></path><path d="M122.34,233.91v2.23l-2.82,1.62-2.08-1.2a10.61,10.61,0,0,1-8.07.36V234.7l1.28-1.27-1.28.35a8.21,8.21,0,0,1-6.28-.72c-1.26-.73-1.85-1.52-1.85-2.34v-2.17l.23-.94-.77-.45v-2.23l2.09,1.21a3.23,3.23,0,0,0-1.55,2.39v0c0,.8.62,1.58,1.85,2.29,2.74,1.58,5.45,1.06,7.94.26,2.31-.75,4-1.64,5.33-.87.83.48.58,1.06-.35,1.6a4.65,4.65,0,0,1-4,.23l-2.67,2.64a9.69,9.69,0,0,0,1.47.43,11,11,0,0,0,6.6-.8l2.08,1.21Z" style="fill:#f5f5f5"></path><polygon points="117.44 234.34 117.44 236.56 119.52 237.76 119.52 235.54 117.44 234.34" style="fill:#f5f5f5"></polygon></g><path d="M121.87,233.64l-1.61-.93a2.74,2.74,0,0,0,1.61-2.47,1.5,1.5,0,0,0,0-.22c-.07-.77-.63-1.51-1.8-2.18h0a7.4,7.4,0,0,0-3.74-1H116l-.33,0-.3,0h-.12l-.22,0a17.23,17.23,0,0,0-1.82.38l-.85.25-1.18.38-.45.16a13.27,13.27,0,0,1-2.5.71,2.52,2.52,0,0,1-1.07,0,2.21,2.21,0,0,1-.5-.21c-.63-.36-.73-.92.45-1.6a4.12,4.12,0,0,1,3.62-.38l2.51-2.52a10.73,10.73,0,0,0-7.56.42l-2.09-1.2-2.84,1.64,2.09,1.2a3.21,3.21,0,0,0-1.55,2.39v0c0,.8.61,1.58,1.85,2.29,2.74,1.58,5.46,1.06,7.94.26,2.31-.76,4-1.64,5.33-.88.83.49.57,1.07-.35,1.6a4.58,4.58,0,0,1-4,.23l-2.67,2.65a9.69,9.69,0,0,0,1.47.43,11.05,11.05,0,0,0,6.6-.79l2.08,1.2,2.82-1.62Z" style="fill:#37474F"></path><path d="M121.87,233.64l-1.61-.93a2.74,2.74,0,0,0,1.61-2.47,1.5,1.5,0,0,0,0-.22c-.07-.77-.63-1.51-1.8-2.18h0a7.4,7.4,0,0,0-3.74-1H116l-.33,0-.3,0h-.12l-.22,0a17.23,17.23,0,0,0-1.82.38l-.85.25-1.18.38-.45.16a13.27,13.27,0,0,1-2.5.71,2.52,2.52,0,0,1-1.07,0,2.21,2.21,0,0,1-.5-.21c-.63-.36-.73-.92.45-1.6a4.12,4.12,0,0,1,3.62-.38l2.51-2.52a10.73,10.73,0,0,0-7.56.42l-2.09-1.2-2.84,1.64,2.09,1.2a3.21,3.21,0,0,0-1.55,2.39v0c0,.8.61,1.58,1.85,2.29,2.74,1.58,5.46,1.06,7.94.26,2.31-.76,4-1.64,5.33-.88.83.49.57,1.07-.35,1.6a4.58,4.58,0,0,1-4,.23l-2.67,2.65a9.69,9.69,0,0,0,1.47.43,11.05,11.05,0,0,0,6.6-.79l2.08,1.2,2.82-1.62Z" style="fill:#f5f5f5;opacity:0.7000000000000001"></path><path d="M420.94,258.31a18.13,18.13,0,0,0-6.67-6.17c-10.91-6.29-28.59-6.29-39.49,0a18.13,18.13,0,0,0-6.67,6.17H366.6V264h0c.2,4,2.92,7.89,8.16,10.92,10.9,6.3,28.58,6.3,39.49,0,5.24-3,8-7,8.16-10.92h0v-5.71Z" style="fill:#37474F"></path><path d="M420.94,258.31a18.13,18.13,0,0,0-6.67-6.17c-10.91-6.29-28.59-6.29-39.49,0a18.13,18.13,0,0,0-6.67,6.17H366.6V264h0c.2,4,2.92,7.89,8.16,10.92,10.9,6.3,28.58,6.3,39.49,0,5.24-3,8-7,8.16-10.92h0v-5.71Z" style="fill:#f5f5f5;opacity:0.5"></path><path d="M414.27,246.91c-10.91-6.29-28.59-6.29-39.49,0s-10.9,16.51,0,22.8,28.58,6.3,39.49,0S425.17,253.21,414.27,246.91Z" style="fill:#37474F"></path><path d="M414.27,246.91c-10.91-6.29-28.59-6.29-39.49,0s-10.9,16.51,0,22.8,28.58,6.3,39.49,0S425.17,253.21,414.27,246.91Z" style="fill:#f5f5f5;opacity:0.6000000000000001"></path><path d="M407.38,251.09a31.42,31.42,0,0,0-25.71,0C378,253,376,255.53,376,258.32s2,5.35,5.67,7.22a31.42,31.42,0,0,0,25.71,0c3.65-1.87,5.67-4.44,5.67-7.22S411,253,407.38,251.09Z" style="fill:#37474F"></path><path d="M407.38,251.09a31.42,31.42,0,0,0-25.71,0C378,253,376,255.53,376,258.32s2,5.35,5.67,7.22a31.42,31.42,0,0,0,25.71,0c3.65-1.87,5.67-4.44,5.67-7.22S411,253,407.38,251.09Z" style="fill:#f5f5f5;opacity:0.6000000000000001"></path><path d="M413.66,248c-5.09-2.94-11.89-4.56-19.14-4.56s-14,1.62-19.13,4.56c-4.89,2.82-7.57,6.49-7.57,10.35s2.68,7.52,7.57,10.34c5.09,2.94,11.88,4.56,19.13,4.56s14.05-1.62,19.14-4.56c4.88-2.82,7.57-6.49,7.57-10.34S418.54,250.79,413.66,248Zm-6.28,17.57a31.42,31.42,0,0,1-25.71,0c-3.66-1.87-5.67-4.44-5.67-7.22s2-5.36,5.67-7.23a31.42,31.42,0,0,1,25.71,0c3.65,1.87,5.67,4.44,5.67,7.23S411,263.67,407.38,265.54Z" style="fill:#37474F"></path><path d="M413.66,248c-5.09-2.94-11.89-4.56-19.14-4.56s-14,1.62-19.13,4.56c-4.89,2.82-7.57,6.49-7.57,10.35s2.68,7.52,7.57,10.34c5.09,2.94,11.88,4.56,19.13,4.56s14.05-1.62,19.14-4.56c4.88-2.82,7.57-6.49,7.57-10.34S418.54,250.79,413.66,248Zm-6.28,17.57a31.42,31.42,0,0,1-25.71,0c-3.66-1.87-5.67-4.44-5.67-7.22s2-5.36,5.67-7.23a31.42,31.42,0,0,1,25.71,0c3.65,1.87,5.67,4.44,5.67,7.23S411,263.67,407.38,265.54Z" style="fill:#f5f5f5;opacity:0.7000000000000001"></path><ellipse cx="394.52" cy="258.31" rx="17.56" ry="9.01" style="fill:#37474F"></ellipse><ellipse cx="394.52" cy="258.31" rx="17.56" ry="9.01" style="fill:#f5f5f5;opacity:0.5"></ellipse><path d="M406.94,254.33c-6.86-3.52-18-3.52-24.83,0-2.84,1.45-4.5,3.28-5,5.18.49,1.89,2.15,3.72,5,5.18,6.85,3.51,18,3.51,24.83,0,2.84-1.46,4.5-3.29,5-5.18C411.44,257.61,409.78,255.78,406.94,254.33Z" style="fill:#37474F"></path><path d="M406.94,254.33c-6.86-3.52-18-3.52-24.83,0-2.84,1.45-4.5,3.28-5,5.18.49,1.89,2.15,3.72,5,5.18,6.85,3.51,18,3.51,24.83,0,2.84-1.46,4.5-3.29,5-5.18C411.44,257.61,409.78,255.78,406.94,254.33Z" style="fill:#f5f5f5;opacity:0.6000000000000001"></path><polygon points="396.19 252.08 396.19 254.65 395.31 255.58 393.68 257.28 393.68 254.6 396.19 252.08" style="fill:#37474F"></polygon><path d="M393.68,254.6v2.68H388.6v-3.14S393.3,253.42,393.68,254.6Z" style="fill:#37474F"></path><path d="M405.34,261.91v2.23l-2.82,1.62-2.08-1.2a10.61,10.61,0,0,1-8.07.36V262.7l1.28-1.27-1.28.35a8.21,8.21,0,0,1-6.28-.72c-1.26-.73-1.85-1.52-1.85-2.34v-2.17l.23-.94-.77-.45v-2.23l2.09,1.21a3.23,3.23,0,0,0-1.55,2.39v0c0,.8.62,1.58,1.85,2.29,2.74,1.58,5.45,1.06,7.94.26,2.31-.75,4-1.64,5.33-.87.83.48.57,1.06-.35,1.6a4.65,4.65,0,0,1-4,.23l-2.67,2.64a9.69,9.69,0,0,0,1.47.43,11,11,0,0,0,6.6-.8l2.08,1.21Z" style="fill:#37474F"></path><polygon points="400.44 262.33 400.44 264.56 402.52 265.76 402.52 263.54 400.44 262.33" style="fill:#37474F"></polygon><g style="opacity:0.5"><polygon points="396.19 252.08 396.19 254.65 395.31 255.58 393.68 257.28 393.68 254.6 396.19 252.08" style="fill:#f5f5f5"></polygon><path d="M393.68,254.6v2.68H388.6v-3.14S393.3,253.42,393.68,254.6Z" style="fill:#f5f5f5"></path><path d="M405.34,261.91v2.23l-2.82,1.62-2.08-1.2a10.61,10.61,0,0,1-8.07.36V262.7l1.28-1.27-1.28.35a8.21,8.21,0,0,1-6.28-.72c-1.26-.73-1.85-1.52-1.85-2.34v-2.17l.23-.94-.77-.45v-2.23l2.09,1.21a3.23,3.23,0,0,0-1.55,2.39v0c0,.8.62,1.58,1.85,2.29,2.74,1.58,5.45,1.06,7.94.26,2.31-.75,4-1.64,5.33-.87.83.48.57,1.06-.35,1.6a4.65,4.65,0,0,1-4,.23l-2.67,2.64a9.69,9.69,0,0,0,1.47.43,11,11,0,0,0,6.6-.8l2.08,1.21Z" style="fill:#f5f5f5"></path><polygon points="400.44 262.33 400.44 264.56 402.52 265.76 402.52 263.54 400.44 262.33" style="fill:#f5f5f5"></polygon></g><path d="M404.87,261.64l-1.61-.93a2.74,2.74,0,0,0,1.61-2.47,1.5,1.5,0,0,0,0-.22c-.07-.77-.63-1.51-1.8-2.18h0a7.4,7.4,0,0,0-3.74-1H399l-.33,0-.3,0h-.12l-.22,0a17.23,17.23,0,0,0-1.82.38l-.85.25-1.18.38-.45.16a13.27,13.27,0,0,1-2.5.71,2.52,2.52,0,0,1-1.07,0,2.21,2.21,0,0,1-.5-.21c-.63-.36-.73-.92.45-1.6a4.12,4.12,0,0,1,3.62-.38l2.51-2.52a10.73,10.73,0,0,0-7.56.42l-2.09-1.2-2.84,1.64,2.09,1.2a3.21,3.21,0,0,0-1.55,2.39v0c0,.8.61,1.58,1.85,2.29,2.74,1.58,5.46,1.06,7.94.26,2.31-.76,4-1.64,5.33-.88.83.49.57,1.07-.35,1.6a4.58,4.58,0,0,1-4,.23l-2.67,2.65a9.69,9.69,0,0,0,1.47.43,11,11,0,0,0,6.6-.8l2.08,1.21,2.82-1.62Z" style="fill:#37474F"></path><path d="M404.87,261.64l-1.61-.93a2.74,2.74,0,0,0,1.61-2.47,1.5,1.5,0,0,0,0-.22c-.07-.77-.63-1.51-1.8-2.18h0a7.4,7.4,0,0,0-3.74-1H399l-.33,0-.3,0h-.12l-.22,0a17.23,17.23,0,0,0-1.82.38l-.85.25-1.18.38-.45.16a13.27,13.27,0,0,1-2.5.71,2.52,2.52,0,0,1-1.07,0,2.21,2.21,0,0,1-.5-.21c-.63-.36-.73-.92.45-1.6a4.12,4.12,0,0,1,3.62-.38l2.51-2.52a10.73,10.73,0,0,0-7.56.42l-2.09-1.2-2.84,1.64,2.09,1.2a3.21,3.21,0,0,0-1.55,2.39v0c0,.8.61,1.58,1.85,2.29,2.74,1.58,5.46,1.06,7.94.26,2.31-.76,4-1.64,5.33-.88.83.49.57,1.07-.35,1.6a4.58,4.58,0,0,1-4,.23l-2.67,2.65a9.69,9.69,0,0,0,1.47.43,11,11,0,0,0,6.6-.8l2.08,1.21,2.82-1.62Z" style="fill:#f5f5f5;opacity:0.7000000000000001"></path><path d="M422.94,250.31a18.13,18.13,0,0,0-6.67-6.17c-10.91-6.29-28.59-6.29-39.49,0a18.13,18.13,0,0,0-6.67,6.17H368.6V256h0c.2,4,2.92,7.89,8.16,10.92,10.9,6.3,28.58,6.3,39.49,0,5.24-3,8-7,8.16-10.92h0v-5.71Z" style="fill:#37474F"></path><path d="M422.94,250.31a18.13,18.13,0,0,0-6.67-6.17c-10.91-6.29-28.59-6.29-39.49,0a18.13,18.13,0,0,0-6.67,6.17H368.6V256h0c.2,4,2.92,7.89,8.16,10.92,10.9,6.3,28.58,6.3,39.49,0,5.24-3,8-7,8.16-10.92h0v-5.71Z" style="fill:#f5f5f5;opacity:0.5"></path><path d="M416.27,238.91c-10.91-6.29-28.59-6.29-39.49,0s-10.9,16.51,0,22.8,28.58,6.3,39.49,0S427.17,245.21,416.27,238.91Z" style="fill:#37474F"></path><path d="M416.27,238.91c-10.91-6.29-28.59-6.29-39.49,0s-10.9,16.51,0,22.8,28.58,6.3,39.49,0S427.17,245.21,416.27,238.91Z" style="fill:#f5f5f5;opacity:0.6000000000000001"></path><path d="M409.38,243.09a31.42,31.42,0,0,0-25.71,0C380,245,378,247.53,378,250.32s2,5.35,5.67,7.22a31.42,31.42,0,0,0,25.71,0c3.65-1.87,5.67-4.44,5.67-7.22S413,245,409.38,243.09Z" style="fill:#37474F"></path><path d="M409.38,243.09a31.42,31.42,0,0,0-25.71,0C380,245,378,247.53,378,250.32s2,5.35,5.67,7.22a31.42,31.42,0,0,0,25.71,0c3.65-1.87,5.67-4.44,5.67-7.22S413,245,409.38,243.09Z" style="fill:#f5f5f5;opacity:0.6000000000000001"></path><path d="M415.66,240c-5.09-2.94-11.89-4.56-19.14-4.56s-14,1.62-19.13,4.56c-4.89,2.82-7.57,6.49-7.57,10.35s2.68,7.52,7.57,10.34c5.09,2.94,11.88,4.56,19.13,4.56s14.05-1.62,19.14-4.56c4.88-2.82,7.57-6.49,7.57-10.34S420.54,242.79,415.66,240Zm-6.28,17.57a31.42,31.42,0,0,1-25.71,0c-3.66-1.87-5.67-4.44-5.67-7.22s2-5.36,5.67-7.23a31.42,31.42,0,0,1,25.71,0c3.65,1.87,5.67,4.44,5.67,7.23S413,255.67,409.38,257.54Z" style="fill:#37474F"></path><path d="M415.66,240c-5.09-2.94-11.89-4.56-19.14-4.56s-14,1.62-19.13,4.56c-4.89,2.82-7.57,6.49-7.57,10.35s2.68,7.52,7.57,10.34c5.09,2.94,11.88,4.56,19.13,4.56s14.05-1.62,19.14-4.56c4.88-2.82,7.57-6.49,7.57-10.34S420.54,242.79,415.66,240Zm-6.28,17.57a31.42,31.42,0,0,1-25.71,0c-3.66-1.87-5.67-4.44-5.67-7.22s2-5.36,5.67-7.23a31.42,31.42,0,0,1,25.71,0c3.65,1.87,5.67,4.44,5.67,7.23S413,255.67,409.38,257.54Z" style="fill:#f5f5f5;opacity:0.7000000000000001"></path><ellipse cx="396.52" cy="250.31" rx="17.56" ry="9.01" style="fill:#37474F"></ellipse><ellipse cx="396.52" cy="250.31" rx="17.56" ry="9.01" style="fill:#f5f5f5;opacity:0.5"></ellipse><path d="M408.94,246.33c-6.86-3.52-18-3.52-24.83,0-2.84,1.45-4.5,3.28-5,5.18.49,1.89,2.15,3.72,5,5.18,6.85,3.51,18,3.51,24.83,0,2.84-1.46,4.5-3.29,5-5.18C413.44,249.61,411.78,247.78,408.94,246.33Z" style="fill:#37474F"></path><path d="M408.94,246.33c-6.86-3.52-18-3.52-24.83,0-2.84,1.45-4.5,3.28-5,5.18.49,1.89,2.15,3.72,5,5.18,6.85,3.51,18,3.51,24.83,0,2.84-1.46,4.5-3.29,5-5.18C413.44,249.61,411.78,247.78,408.94,246.33Z" style="fill:#f5f5f5;opacity:0.6000000000000001"></path><polygon points="398.19 244.08 398.19 246.65 397.31 247.58 395.68 249.28 395.68 246.6 398.19 244.08" style="fill:#37474F"></polygon><path d="M395.68,246.6v2.68H390.6v-3.14S395.3,245.42,395.68,246.6Z" style="fill:#37474F"></path><path d="M407.34,253.91v2.23l-2.82,1.62-2.08-1.2a10.61,10.61,0,0,1-8.07.36V254.7l1.28-1.27-1.28.35a8.21,8.21,0,0,1-6.28-.72c-1.26-.73-1.85-1.52-1.85-2.34v-2.17l.23-.94-.77-.45v-2.23l2.09,1.21a3.23,3.23,0,0,0-1.55,2.39v0c0,.8.62,1.58,1.85,2.29,2.74,1.58,5.45,1.06,7.94.26,2.31-.75,4-1.64,5.33-.87.83.48.57,1.06-.35,1.6a4.65,4.65,0,0,1-4,.23l-2.67,2.64a9.69,9.69,0,0,0,1.47.43,11,11,0,0,0,6.6-.8l2.08,1.21Z" style="fill:#37474F"></path><polygon points="402.44 254.34 402.44 256.56 404.52 257.76 404.52 255.54 402.44 254.34" style="fill:#37474F"></polygon><g style="opacity:0.5"><polygon points="398.19 244.08 398.19 246.65 397.31 247.58 395.68 249.28 395.68 246.6 398.19 244.08" style="fill:#f5f5f5"></polygon><path d="M395.68,246.6v2.68H390.6v-3.14S395.3,245.42,395.68,246.6Z" style="fill:#f5f5f5"></path><path d="M407.34,253.91v2.23l-2.82,1.62-2.08-1.2a10.61,10.61,0,0,1-8.07.36V254.7l1.28-1.27-1.28.35a8.21,8.21,0,0,1-6.28-.72c-1.26-.73-1.85-1.52-1.85-2.34v-2.17l.23-.94-.77-.45v-2.23l2.09,1.21a3.23,3.23,0,0,0-1.55,2.39v0c0,.8.62,1.58,1.85,2.29,2.74,1.58,5.45,1.06,7.94.26,2.31-.75,4-1.64,5.33-.87.83.48.57,1.06-.35,1.6a4.65,4.65,0,0,1-4,.23l-2.67,2.64a9.69,9.69,0,0,0,1.47.43,11,11,0,0,0,6.6-.8l2.08,1.21Z" style="fill:#f5f5f5"></path><polygon points="402.44 254.34 402.44 256.56 404.52 257.76 404.52 255.54 402.44 254.34" style="fill:#f5f5f5"></polygon></g><path d="M406.87,253.64l-1.61-.93a2.74,2.74,0,0,0,1.61-2.47,1.5,1.5,0,0,0,0-.22c-.07-.77-.63-1.51-1.8-2.18h0a7.4,7.4,0,0,0-3.74-1H401l-.33,0-.3,0h-.12l-.22,0a17.23,17.23,0,0,0-1.82.38l-.85.25-1.18.38-.45.16a13.27,13.27,0,0,1-2.5.71,2.52,2.52,0,0,1-1.07,0,2.21,2.21,0,0,1-.5-.21c-.63-.36-.73-.92.45-1.6a4.12,4.12,0,0,1,3.62-.38l2.51-2.52a10.73,10.73,0,0,0-7.56.42l-2.09-1.2-2.84,1.64,2.09,1.2a3.21,3.21,0,0,0-1.55,2.39v0c0,.8.61,1.58,1.85,2.29,2.74,1.58,5.46,1.06,7.94.26,2.31-.76,4-1.64,5.33-.88.83.49.57,1.07-.35,1.6a4.58,4.58,0,0,1-4,.23l-2.67,2.65a9.69,9.69,0,0,0,1.47.43,11,11,0,0,0,6.6-.8l2.08,1.21,2.82-1.62Z" style="fill:#37474F"></path><path d="M406.87,253.64l-1.61-.93a2.74,2.74,0,0,0,1.61-2.47,1.5,1.5,0,0,0,0-.22c-.07-.77-.63-1.51-1.8-2.18h0a7.4,7.4,0,0,0-3.74-1H401l-.33,0-.3,0h-.12l-.22,0a17.23,17.23,0,0,0-1.82.38l-.85.25-1.18.38-.45.16a13.27,13.27,0,0,1-2.5.71,2.52,2.52,0,0,1-1.07,0,2.21,2.21,0,0,1-.5-.21c-.63-.36-.73-.92.45-1.6a4.12,4.12,0,0,1,3.62-.38l2.51-2.52a10.73,10.73,0,0,0-7.56.42l-2.09-1.2-2.84,1.64,2.09,1.2a3.21,3.21,0,0,0-1.55,2.39v0c0,.8.61,1.58,1.85,2.29,2.74,1.58,5.46,1.06,7.94.26,2.31-.76,4-1.64,5.33-.88.83.49.57,1.07-.35,1.6a4.58,4.58,0,0,1-4,.23l-2.67,2.65a9.69,9.69,0,0,0,1.47.43,11,11,0,0,0,6.6-.8l2.08,1.21,2.82-1.62Z" style="fill:#f5f5f5;opacity:0.7000000000000001"></path><path d="M419.94,243.31a18.13,18.13,0,0,0-6.67-6.17c-10.91-6.29-28.59-6.29-39.49,0a18.13,18.13,0,0,0-6.67,6.17H365.6V249h0c.2,4,2.92,7.89,8.16,10.92,10.9,6.3,28.58,6.3,39.49,0,5.24-3,8-7,8.16-10.92h0v-5.71Z" style="fill:#37474F"></path><path d="M419.94,243.31a18.13,18.13,0,0,0-6.67-6.17c-10.91-6.29-28.59-6.29-39.49,0a18.13,18.13,0,0,0-6.67,6.17H365.6V249h0c.2,4,2.92,7.89,8.16,10.92,10.9,6.3,28.58,6.3,39.49,0,5.24-3,8-7,8.16-10.92h0v-5.71Z" style="fill:#f5f5f5;opacity:0.5"></path><path d="M413.27,231.91c-10.91-6.29-28.59-6.29-39.49,0s-10.9,16.51,0,22.8,28.58,6.3,39.49,0S424.17,238.21,413.27,231.91Z" style="fill:#37474F"></path><path d="M413.27,231.91c-10.91-6.29-28.59-6.29-39.49,0s-10.9,16.51,0,22.8,28.58,6.3,39.49,0S424.17,238.21,413.27,231.91Z" style="fill:#f5f5f5;opacity:0.6000000000000001"></path><path d="M406.38,236.09a31.42,31.42,0,0,0-25.71,0C377,238,375,240.53,375,243.32s2,5.35,5.67,7.22a31.42,31.42,0,0,0,25.71,0c3.65-1.87,5.67-4.44,5.67-7.22S410,238,406.38,236.09Z" style="fill:#37474F"></path><path d="M406.38,236.09a31.42,31.42,0,0,0-25.71,0C377,238,375,240.53,375,243.32s2,5.35,5.67,7.22a31.42,31.42,0,0,0,25.71,0c3.65-1.87,5.67-4.44,5.67-7.22S410,238,406.38,236.09Z" style="fill:#f5f5f5;opacity:0.6000000000000001"></path><path d="M412.66,233c-5.09-2.94-11.89-4.56-19.14-4.56s-14,1.62-19.13,4.56c-4.89,2.82-7.57,6.49-7.57,10.35s2.68,7.52,7.57,10.34c5.09,2.94,11.88,4.56,19.13,4.56s14.05-1.62,19.14-4.56c4.88-2.82,7.57-6.49,7.57-10.34S417.54,235.79,412.66,233Zm-6.28,17.57a31.42,31.42,0,0,1-25.71,0c-3.66-1.87-5.67-4.44-5.67-7.22s2-5.36,5.67-7.23a31.42,31.42,0,0,1,25.71,0c3.65,1.87,5.67,4.44,5.67,7.23S410,248.67,406.38,250.54Z" style="fill:#37474F"></path><path d="M412.66,233c-5.09-2.94-11.89-4.56-19.14-4.56s-14,1.62-19.13,4.56c-4.89,2.82-7.57,6.49-7.57,10.35s2.68,7.52,7.57,10.34c5.09,2.94,11.88,4.56,19.13,4.56s14.05-1.62,19.14-4.56c4.88-2.82,7.57-6.49,7.57-10.34S417.54,235.79,412.66,233Zm-6.28,17.57a31.42,31.42,0,0,1-25.71,0c-3.66-1.87-5.67-4.44-5.67-7.22s2-5.36,5.67-7.23a31.42,31.42,0,0,1,25.71,0c3.65,1.87,5.67,4.44,5.67,7.23S410,248.67,406.38,250.54Z" style="fill:#f5f5f5;opacity:0.7000000000000001"></path><ellipse cx="393.52" cy="243.31" rx="17.56" ry="9.01" style="fill:#37474F"></ellipse><ellipse cx="393.52" cy="243.31" rx="17.56" ry="9.01" style="fill:#f5f5f5;opacity:0.5"></ellipse><path d="M405.94,239.33c-6.86-3.52-18-3.52-24.83,0-2.84,1.45-4.5,3.28-5,5.18.49,1.89,2.15,3.72,5,5.18,6.85,3.51,18,3.51,24.83,0,2.84-1.46,4.5-3.29,5-5.18C410.44,242.61,408.78,240.78,405.94,239.33Z" style="fill:#37474F"></path><path d="M405.94,239.33c-6.86-3.52-18-3.52-24.83,0-2.84,1.45-4.5,3.28-5,5.18.49,1.89,2.15,3.72,5,5.18,6.85,3.51,18,3.51,24.83,0,2.84-1.46,4.5-3.29,5-5.18C410.44,242.61,408.78,240.78,405.94,239.33Z" style="fill:#f5f5f5;opacity:0.6000000000000001"></path><polygon points="395.19 237.08 395.19 239.65 394.31 240.58 392.68 242.28 392.68 239.6 395.19 237.08" style="fill:#37474F"></polygon><path d="M392.68,239.6v2.68H387.6v-3.14S392.3,238.42,392.68,239.6Z" style="fill:#37474F"></path><path d="M404.34,246.91v2.23l-2.82,1.62-2.08-1.2a10.61,10.61,0,0,1-8.07.36V247.7l1.28-1.27-1.28.35a8.21,8.21,0,0,1-6.28-.72c-1.26-.73-1.85-1.52-1.85-2.34v-2.17l.23-.94-.77-.45v-2.23l2.09,1.21a3.23,3.23,0,0,0-1.55,2.39v0c0,.8.62,1.58,1.85,2.29,2.74,1.58,5.45,1.06,7.94.26,2.31-.75,4-1.64,5.33-.87.83.48.57,1.06-.35,1.6a4.65,4.65,0,0,1-4,.23l-2.67,2.64a9.69,9.69,0,0,0,1.47.43,11,11,0,0,0,6.6-.8l2.08,1.21Z" style="fill:#37474F"></path><polygon points="399.44 247.34 399.44 249.56 401.52 250.76 401.52 248.54 399.44 247.34" style="fill:#37474F"></polygon><g style="opacity:0.5"><polygon points="395.19 237.08 395.19 239.65 394.31 240.58 392.68 242.28 392.68 239.6 395.19 237.08" style="fill:#f5f5f5"></polygon><path d="M392.68,239.6v2.68H387.6v-3.14S392.3,238.42,392.68,239.6Z" style="fill:#f5f5f5"></path><path d="M404.34,246.91v2.23l-2.82,1.62-2.08-1.2a10.61,10.61,0,0,1-8.07.36V247.7l1.28-1.27-1.28.35a8.21,8.21,0,0,1-6.28-.72c-1.26-.73-1.85-1.52-1.85-2.34v-2.17l.23-.94-.77-.45v-2.23l2.09,1.21a3.23,3.23,0,0,0-1.55,2.39v0c0,.8.62,1.58,1.85,2.29,2.74,1.58,5.45,1.06,7.94.26,2.31-.75,4-1.64,5.33-.87.83.48.57,1.06-.35,1.6a4.65,4.65,0,0,1-4,.23l-2.67,2.64a9.69,9.69,0,0,0,1.47.43,11,11,0,0,0,6.6-.8l2.08,1.21Z" style="fill:#f5f5f5"></path><polygon points="399.44 247.34 399.44 249.56 401.52 250.76 401.52 248.54 399.44 247.34" style="fill:#f5f5f5"></polygon></g><path d="M403.87,246.64l-1.61-.93a2.74,2.74,0,0,0,1.61-2.47,1.5,1.5,0,0,0,0-.22c-.07-.77-.63-1.51-1.8-2.18h0a7.4,7.4,0,0,0-3.74-1H398l-.33,0-.3,0h-.12l-.22,0a17.23,17.23,0,0,0-1.82.38l-.85.25-1.18.38-.45.16a13.27,13.27,0,0,1-2.5.71,2.52,2.52,0,0,1-1.07,0,2.21,2.21,0,0,1-.5-.21c-.63-.36-.73-.92.45-1.6a4.12,4.12,0,0,1,3.62-.38l2.51-2.52a10.73,10.73,0,0,0-7.56.42l-2.09-1.2-2.84,1.64,2.09,1.2a3.21,3.21,0,0,0-1.55,2.39v0c0,.8.61,1.58,1.85,2.29,2.74,1.58,5.46,1.06,7.94.26,2.31-.76,4-1.64,5.33-.88.83.49.57,1.07-.35,1.6a4.58,4.58,0,0,1-4,.23l-2.67,2.65a9.69,9.69,0,0,0,1.47.43,11.05,11.05,0,0,0,6.6-.79l2.08,1.2,2.82-1.62Z" style="fill:#37474F"></path><path d="M403.87,246.64l-1.61-.93a2.74,2.74,0,0,0,1.61-2.47,1.5,1.5,0,0,0,0-.22c-.07-.77-.63-1.51-1.8-2.18h0a7.4,7.4,0,0,0-3.74-1H398l-.33,0-.3,0h-.12l-.22,0a17.23,17.23,0,0,0-1.82.38l-.85.25-1.18.38-.45.16a13.27,13.27,0,0,1-2.5.71,2.52,2.52,0,0,1-1.07,0,2.21,2.21,0,0,1-.5-.21c-.63-.36-.73-.92.45-1.6a4.12,4.12,0,0,1,3.62-.38l2.51-2.52a10.73,10.73,0,0,0-7.56.42l-2.09-1.2-2.84,1.64,2.09,1.2a3.21,3.21,0,0,0-1.55,2.39v0c0,.8.61,1.58,1.85,2.29,2.74,1.58,5.46,1.06,7.94.26,2.31-.76,4-1.64,5.33-.88.83.49.57,1.07-.35,1.6a4.58,4.58,0,0,1-4,.23l-2.67,2.65a9.69,9.69,0,0,0,1.47.43,11.05,11.05,0,0,0,6.6-.79l2.08,1.2,2.82-1.62Z" style="fill:#f5f5f5;opacity:0.7000000000000001"></path><path d="M422.94,234.31a18.13,18.13,0,0,0-6.67-6.17c-10.91-6.29-28.59-6.29-39.49,0a18.13,18.13,0,0,0-6.67,6.17H368.6V240h0c.2,4,2.92,7.89,8.16,10.92,10.9,6.3,28.58,6.3,39.49,0,5.24-3,8-7,8.16-10.92h0v-5.71Z" style="fill:#37474F"></path><path d="M422.94,234.31a18.13,18.13,0,0,0-6.67-6.17c-10.91-6.29-28.59-6.29-39.49,0a18.13,18.13,0,0,0-6.67,6.17H368.6V240h0c.2,4,2.92,7.89,8.16,10.92,10.9,6.3,28.58,6.3,39.49,0,5.24-3,8-7,8.16-10.92h0v-5.71Z" style="fill:#f5f5f5;opacity:0.5"></path><path d="M416.27,222.91c-10.91-6.29-28.59-6.29-39.49,0s-10.9,16.51,0,22.8,28.58,6.3,39.49,0S427.17,229.21,416.27,222.91Z" style="fill:#37474F"></path><path d="M416.27,222.91c-10.91-6.29-28.59-6.29-39.49,0s-10.9,16.51,0,22.8,28.58,6.3,39.49,0S427.17,229.21,416.27,222.91Z" style="fill:#f5f5f5;opacity:0.6000000000000001"></path><path d="M409.38,227.09a31.42,31.42,0,0,0-25.71,0C380,229,378,231.53,378,234.32s2,5.35,5.67,7.22a31.42,31.42,0,0,0,25.71,0c3.65-1.87,5.67-4.44,5.67-7.22S413,229,409.38,227.09Z" style="fill:#37474F"></path><path d="M409.38,227.09a31.42,31.42,0,0,0-25.71,0C380,229,378,231.53,378,234.32s2,5.35,5.67,7.22a31.42,31.42,0,0,0,25.71,0c3.65-1.87,5.67-4.44,5.67-7.22S413,229,409.38,227.09Z" style="fill:#f5f5f5;opacity:0.6000000000000001"></path><path d="M415.66,224c-5.09-2.94-11.89-4.56-19.14-4.56s-14,1.62-19.13,4.56c-4.89,2.82-7.57,6.49-7.57,10.35s2.68,7.52,7.57,10.34c5.09,2.94,11.88,4.56,19.13,4.56s14.05-1.62,19.14-4.56c4.88-2.82,7.57-6.49,7.57-10.34S420.54,226.79,415.66,224Zm-6.28,17.57a31.42,31.42,0,0,1-25.71,0c-3.66-1.87-5.67-4.44-5.67-7.22s2-5.36,5.67-7.23a31.42,31.42,0,0,1,25.71,0c3.65,1.87,5.67,4.44,5.67,7.23S413,239.67,409.38,241.54Z" style="fill:#37474F"></path><path d="M415.66,224c-5.09-2.94-11.89-4.56-19.14-4.56s-14,1.62-19.13,4.56c-4.89,2.82-7.57,6.49-7.57,10.35s2.68,7.52,7.57,10.34c5.09,2.94,11.88,4.56,19.13,4.56s14.05-1.62,19.14-4.56c4.88-2.82,7.57-6.49,7.57-10.34S420.54,226.79,415.66,224Zm-6.28,17.57a31.42,31.42,0,0,1-25.71,0c-3.66-1.87-5.67-4.44-5.67-7.22s2-5.36,5.67-7.23a31.42,31.42,0,0,1,25.71,0c3.65,1.87,5.67,4.44,5.67,7.23S413,239.67,409.38,241.54Z" style="fill:#f5f5f5;opacity:0.7000000000000001"></path><ellipse cx="396.52" cy="234.31" rx="17.56" ry="9.01" style="fill:#37474F"></ellipse><ellipse cx="396.52" cy="234.31" rx="17.56" ry="9.01" style="fill:#f5f5f5;opacity:0.5"></ellipse><path d="M408.94,230.33c-6.86-3.52-18-3.52-24.83,0-2.84,1.45-4.5,3.28-5,5.18.49,1.89,2.15,3.72,5,5.18,6.85,3.51,18,3.51,24.83,0,2.84-1.46,4.5-3.29,5-5.18C413.44,233.61,411.78,231.78,408.94,230.33Z" style="fill:#37474F"></path><path d="M408.94,230.33c-6.86-3.52-18-3.52-24.83,0-2.84,1.45-4.5,3.28-5,5.18.49,1.89,2.15,3.72,5,5.18,6.85,3.51,18,3.51,24.83,0,2.84-1.46,4.5-3.29,5-5.18C413.44,233.61,411.78,231.78,408.94,230.33Z" style="fill:#f5f5f5;opacity:0.6000000000000001"></path><polygon points="398.19 228.08 398.19 230.65 397.31 231.58 395.68 233.28 395.68 230.6 398.19 228.08" style="fill:#37474F"></polygon><path d="M395.68,230.6v2.68H390.6v-3.14S395.3,229.42,395.68,230.6Z" style="fill:#37474F"></path><path d="M407.34,237.91v2.23l-2.82,1.62-2.08-1.2a10.61,10.61,0,0,1-8.07.36V238.7l1.28-1.27-1.28.35a8.21,8.21,0,0,1-6.28-.72c-1.26-.73-1.85-1.52-1.85-2.34v-2.17l.23-.94-.77-.45v-2.23l2.09,1.21a3.23,3.23,0,0,0-1.55,2.39v0c0,.8.62,1.58,1.85,2.29,2.74,1.58,5.45,1.06,7.94.26,2.31-.75,4-1.64,5.33-.87.83.48.57,1.06-.35,1.6a4.65,4.65,0,0,1-4,.23l-2.67,2.64a9.69,9.69,0,0,0,1.47.43,11,11,0,0,0,6.6-.8l2.08,1.21Z" style="fill:#37474F"></path><polygon points="402.44 238.34 402.44 240.56 404.52 241.76 404.52 239.54 402.44 238.34" style="fill:#37474F"></polygon><g style="opacity:0.5"><polygon points="398.19 228.08 398.19 230.65 397.31 231.58 395.68 233.28 395.68 230.6 398.19 228.08" style="fill:#f5f5f5"></polygon><path d="M395.68,230.6v2.68H390.6v-3.14S395.3,229.42,395.68,230.6Z" style="fill:#f5f5f5"></path><path d="M407.34,237.91v2.23l-2.82,1.62-2.08-1.2a10.61,10.61,0,0,1-8.07.36V238.7l1.28-1.27-1.28.35a8.21,8.21,0,0,1-6.28-.72c-1.26-.73-1.85-1.52-1.85-2.34v-2.17l.23-.94-.77-.45v-2.23l2.09,1.21a3.23,3.23,0,0,0-1.55,2.39v0c0,.8.62,1.58,1.85,2.29,2.74,1.58,5.45,1.06,7.94.26,2.31-.75,4-1.64,5.33-.87.83.48.57,1.06-.35,1.6a4.65,4.65,0,0,1-4,.23l-2.67,2.64a9.69,9.69,0,0,0,1.47.43,11,11,0,0,0,6.6-.8l2.08,1.21Z" style="fill:#f5f5f5"></path><polygon points="402.44 238.34 402.44 240.56 404.52 241.76 404.52 239.54 402.44 238.34" style="fill:#f5f5f5"></polygon></g><path d="M406.87,237.64l-1.61-.93a2.74,2.74,0,0,0,1.61-2.47,1.5,1.5,0,0,0,0-.22c-.07-.77-.63-1.51-1.8-2.18h0a7.4,7.4,0,0,0-3.74-1H401l-.33,0-.3,0h-.12l-.22,0a17.23,17.23,0,0,0-1.82.38l-.85.25-1.18.38-.45.16a13.27,13.27,0,0,1-2.5.71,2.52,2.52,0,0,1-1.07,0,2.21,2.21,0,0,1-.5-.21c-.63-.36-.73-.92.45-1.6a4.12,4.12,0,0,1,3.62-.38l2.51-2.52a10.73,10.73,0,0,0-7.56.42l-2.09-1.2-2.84,1.64,2.09,1.2a3.21,3.21,0,0,0-1.55,2.39v0c0,.8.61,1.58,1.85,2.29,2.74,1.58,5.46,1.06,7.94.26,2.31-.76,4-1.64,5.33-.88.83.49.57,1.07-.35,1.6a4.58,4.58,0,0,1-4,.23l-2.67,2.65a9.69,9.69,0,0,0,1.47.43,11.05,11.05,0,0,0,6.6-.79l2.08,1.2,2.82-1.62Z" style="fill:#37474F"></path><path d="M406.87,237.64l-1.61-.93a2.74,2.74,0,0,0,1.61-2.47,1.5,1.5,0,0,0,0-.22c-.07-.77-.63-1.51-1.8-2.18h0a7.4,7.4,0,0,0-3.74-1H401l-.33,0-.3,0h-.12l-.22,0a17.23,17.23,0,0,0-1.82.38l-.85.25-1.18.38-.45.16a13.27,13.27,0,0,1-2.5.71,2.52,2.52,0,0,1-1.07,0,2.21,2.21,0,0,1-.5-.21c-.63-.36-.73-.92.45-1.6a4.12,4.12,0,0,1,3.62-.38l2.51-2.52a10.73,10.73,0,0,0-7.56.42l-2.09-1.2-2.84,1.64,2.09,1.2a3.21,3.21,0,0,0-1.55,2.39v0c0,.8.61,1.58,1.85,2.29,2.74,1.58,5.46,1.06,7.94.26,2.31-.76,4-1.64,5.33-.88.83.49.57,1.07-.35,1.6a4.58,4.58,0,0,1-4,.23l-2.67,2.65a9.69,9.69,0,0,0,1.47.43,11.05,11.05,0,0,0,6.6-.79l2.08,1.2,2.82-1.62Z" style="fill:#f5f5f5;opacity:0.7000000000000001"></path></g></svg>